<svg id="Capa_1" data-name="Capa 1" xmlns="http://www.w3.org/2000/svg" viewBox="0 0 404.3 439.23"><defs><style>.cls-1{fill:#fff;}.cls-2{fill:#43b665;}.cls-3{fill:#9bd7d9;}.cls-4{fill:#5c9340;}</style></defs><title>favicon2</title><polygon class="cls-1" points="202.8 439.23 135.05 375.68 270.55 375.68 202.8 439.23"/><ellipse class="cls-1" cx="202.15" cy="199.79" rx="202.15" ry="199.79"/><path class="cls-2" d="M202.19,126.67a3.75,3.75,0,0,0-1,2l2.32-2.75A3.3,3.3,0,0,0,202.19,126.67Z" transform="translate(-18.7 -2.47)"/><path class="cls-2" d="M347.21,159.5C335.29,122.23,311.64,99.66,288.5,86A139.83,139.83,0,0,1,347.21,159.5Z" transform="translate(-18.7 -2.47)"/><path class="cls-3" d="M198.71,137.68a42.67,42.67,0,0,1-1-5.84L196,134.31Z" transform="translate(-18.7 -2.47)"/><path class="cls-3" d="M218.51,323.19V298.33l-29.48-35,28.91-26.09c-46.34-7.66-34-59.91-34-59.91.35-16.64,18-33.28,31.15-43.44l-19.24-19.45,6.18-7.35a4.86,4.86,0,0,1,1.24-2.6,4.35,4.35,0,0,1,1.7-.83l13.55-16.14V80a16.88,16.88,0,0,1-8.86,3.45,13.82,13.82,0,0,1-5.8-1.66,15.64,15.64,0,0,1,2.28-7.24c2.27-3.89,6.83-6.67,6.83-6.67a30.29,30.29,0,0,1,5.55,4.93V57.28L233,37.54,225.3,26.37c-.54,0-1.06-.05-1.6-.05a179.48,179.48,0,0,0-65,12.2c13.74-2.84,36.14-6.63,47.48-4,0,0-13.65,16.11-20.48,17.77s-18.2,7.22-21,9.45-12.52-1.66-6.83-6.12,21-14.45,17.64-15.57-18.78,9.45-25,13.91S139,65,136.18,69.48s-2.29,16.12-8.53,18.35S94.13,101.18,85,109s-18.9,13.52-22.88,21.31c-1,2-1.38,2.12-1.28,1.07q-3,6.74-5.46,13.75c3.15.65.41,19.47-.72,23.29l-8.2,18.16c-.37,4.19-.58,8.43-.67,12.7a3.69,3.69,0,0,1,1.68-1.89c6.25-2.78,8.14-3.36,13.66,2.23s13,15,15.92,20,13.11,11.12,13.11,15-2.28,13.34,0,17.77,5.68,5,10.79,7.23,14.8,5.55,20.48,10.56,13.66,11.12,11.94,17.77-5.11,16.69-4,20.58,5.13,10.56.57,13.34-8,2.23-7.38,7.22c.54,4.81,5.81,19.26,7.73,22.91a178.8,178.8,0,0,0,92.31,26.16l20.87-26Z" transform="translate(-18.7 -2.47)"/><path class="cls-4" d="M216.2,161.25V134.1l-3.85-3.57c-15,10.55-34.85,27.82-35.25,45.09,0,0-14,54.25,38.44,62.2l.66-.56,3.38-21.72,31.23-26.46Z" transform="translate(-18.7 -2.47)"/><path class="cls-4" d="M218.51,80V72.8A30.29,30.29,0,0,0,213,67.87a22.6,22.6,0,0,0-6.82,6.67,15.64,15.64,0,0,0-2.28,7.24,13.82,13.82,0,0,0,5.79,1.66A16.72,16.72,0,0,0,218.51,80Z" transform="translate(-18.7 -2.47)"/><path class="cls-4" d="M158.66,38.52C151.74,40,147,41.15,147,41.15,91.82,67.81,67.64,110.4,67.64,110.4c-2.59,5.51-6.47,18-6.8,20.93-.1,1,.24,1,1.28-1.07,4-7.78,13.78-13.52,22.88-21.3s36.4-18.91,42.66-21.13,5.67-13.9,8.54-18.36,8-11.11,14.2-15.56,21.61-15,25-13.91-12,11.13-17.64,15.58,4,8.34,6.84,6.11,14.2-7.77,21-9.44,20.48-17.77,20.48-17.77C194.8,31.89,172.4,35.69,158.66,38.52Z" transform="translate(-18.7 -2.47)"/><path class="cls-4" d="M121.39,270.2c-5.69-5-15.34-8.35-20.47-10.56s-8.53-2.79-10.8-7.24,0-13.89,0-17.77-10.23-10-13.08-15-10.42-14.43-15.87-20-7.41-5-13.66-2.23a3.67,3.67,0,0,0-1.68,1.88c-3.36,7.26,1.11,30.93,1.11,30.93,12.66,92.45,83.57,122.3,83.57,122.3l-.25-.43c-1.92-3.65-7.18-18.1-7.72-22.91s2.84-4.44,7.38-7.22.57-9.45-.58-13.34,2.29-13.9,4-20.58S127.1,275.21,121.39,270.2Z" transform="translate(-18.7 -2.47)"/><path class="cls-4" d="M54.66,168.39c1.12-3.82,3.87-22.63.71-23.28a.37.37,0,0,0-.14-.07c-.26.92-.48,1.74-.71,2.6a171,171,0,0,0-6.91,29.62c-.16,1-.3,2-.47,3-.28,2-.62,4.3-1,7l.33-.74Z" transform="translate(-18.7 -2.47)"/><path class="cls-3" d="M224.88,124c25.59-10,34.69,1.67,34.69,1.67,10.12,5.36,33.69,2.46,45.19.6l-3.12-2.82s10.24-8.89,6.84-13.9-10.81,1.67-17.07,1.67-14.78,5-18.2.55-5.69-3.34-9.1-.55-9.66,7.22-10.25,4.44-10.79-1.66-11.37-4.44,1.72-10.57-3.39-8.89-12.52,7.23-13.66,10-5.1,11.11-9.09,11.11c-2.5,0-7.5.88-11.26.7l7.87,8C219.76,127,224.88,124,224.88,124Z" transform="translate(-18.7 -2.47)"/><path class="cls-3" d="M217,58.2V87.47a2,2,0,0,1,.86-1.13c2.52-1.27,9.33-15.73,13.89-17.4s16.49,4.44,18.21.56c0,0,.56-11.67-1.72-13.34s-4-6.67-8-6.12-5.69,4.45-2.83,6.12,5.1,8.34,3.41,8.34-17.09,1.1-17.63-2.79S224.87,48.4,230,45s15.93-2.77,19.35-1.12,7.38-1.65,8.53-4.44S241.69,27.4,236.58,27.4c0,0,38,2.8,77,25.78a178.54,178.54,0,0,0-89.13-26.65l7.65,11.13Z" transform="translate(-18.7 -2.47)"/><path class="cls-3" d="M218,100.63c-.55-3-1.72-8.38-1.4-11.69l-11.77,14C210.86,102.7,218.58,103.44,218,100.63Z" transform="translate(-18.7 -2.47)"/><path class="cls-3" d="M397.17,202.28A174.15,174.15,0,0,0,387.82,146a201.93,201.93,0,0,1,6.67,27.51s-14.36-46.75-24-49.54c0,0-5.12,3.35-8.54,2.79s-20.47-11.13-21.6-8.35,8,12.24,17.62,13.34S368.23,134,368.81,139s2.26,12.83,1.13,17.77-8,20-20.48,10l-25-22.71c5.81,9.4,12.17,19.58,16.47,23.8,8.52,8.34,20.48,19.46,20.48,19.46,17.05-3.89,6.82,26.13,6.82,26.13-2.84,10-14.21,42.26-14.21,42.26-.58,7.22-8.54,35-8.54,35-13.64,40-56.85,52.25-56.85,52.25.55-4.45-4-18.89-4-18.89-6.82-16.7-1.72-38.38-1.72-38.38.57-6.49-6.82-17.23-6.82-17.23-4.55-5-6.25-28.36-6.25-28.36-5.36-16.13-42.21-6.74-52.85-3.65V238l-28.4,25.61L217,297.19V322l25.84,30.1-20.89,26C318.94,376.7,397.17,298.55,397.17,202.28Z" transform="translate(-18.7 -2.47)"/><path class="cls-4" d="M259.31,124.53s-9.34-12-35.44-1.7c0,0-5.23,3.11-12.18,8.27l4.09,4.15v26.6l33,28.93-33,25.81v21.24c10.87-3.16,48.51-12.77,54,3.72,0,0,1.74,23.87,6.39,29,0,0,7.54,11,7,17.6,0,0-5.22,22.14,1.75,39.2,0,0,4.64,14.81,4.07,19.32,0,0,44.15-12.5,58.07-53.41,0,0,8.14-28.4,8.73-35.79,0,0,11.6-32.95,14.51-43.18,0,0,10.45-30.67-7-26.66,0,0-12.21-11.36-20.92-19.88-4.4-4.31-10.89-14.71-16.81-24.31L305.44,125.2C293.71,127,269.65,130,259.31,124.53Z" transform="translate(-18.7 -2.47)"/><path class="cls-4" d="M257.87,39.51c-1.15,2.78-5.14,6.12-8.54,4.44S235.11,41.71,230,45s-7.37,12.83-6.81,16.67,15.92,2.79,17.63,2.79-.58-6.67-3.41-8.34-1.15-5.56,2.84-6.12,5.68,4.45,8,6.12,1.71,13.34,1.71,13.34c-1.71,3.88-13.66-2.23-18.21-.56s-11.37,16.13-13.88,17.4a2,2,0,0,0-.87,1.13v1.1l-.31.37c-.32,3.31.85,8.76,1.4,11.69s-7.18,2-13.17,2.33l-7.46,8.89a36.86,36.86,0,0,0,1.25,5.79l6.42,6.49c3.76.19,8.76-.7,11.26-.7,4,0,8-8.33,9.1-11.12s8.53-8.34,13.65-10,2.85,6.12,3.4,8.89,10.82,1.67,11.37,4.45,6.84-1.67,10.25-4.45,5.69-3.89,9.09.56,12-.56,18.21-.56,13.65-6.68,17.06-1.67-6.87,13.91-6.87,13.91l3.12,2.83c4-.64,6.56-1.16,6.56-1.16,2.25,1.38,7.42,9.81,13.1,19l25,22.71c12.52,10,19.35-5,20.48-10S369.29,144,368.73,139s-1.15-6.12-10.82-7.24-18.76-10.54-17.62-13.33,18.19,7.77,21.61,8.34,8.53-2.78,8.53-2.78c9.66,2.78,24,49.53,24,49.53A201.75,201.75,0,0,0,387.82,146a176.65,176.65,0,0,0-74.2-92.81c-39.09-23-77-25.78-77-25.78C241.69,27.4,259,36.71,257.87,39.51Z" transform="translate(-18.7 -2.47)"/><path class="cls-4" d="M301.64,123.43s-3.26,1.34-8.4,3.28l30.74,15c-4.73-5.08-7.82-14.19-12-16.87C309,122.9,303,123.7,301.64,123.43Z" transform="translate(-18.7 -2.47)"/></svg>