<svg id="Capa_1" data-name="Capa 1" xmlns="http://www.w3.org/2000/svg" viewBox="0 0 441.7 492.45"><defs><style>.cls-1{fill:#fff;}.cls-2{fill:#0c8faa;}.cls-3{fill:#c4f5ff;}</style></defs><title>icenv4</title><polygon class="cls-1" points="220.85 492.45 148.99 431.29 292.71 431.29 220.85 492.45"/><circle class="cls-1" cx="220.85" cy="220.85" r="220.85"/><polygon class="cls-2" points="220.85 461.87 153.1 398.32 288.6 398.32 220.85 461.87"/><path class="cls-1" d="M262.41,90.53a49.44,49.44,0,0,0-6.24-13.32l0,0s0,0,0,0h0c-1.16-1.66-3.8-2.81-6.88-2.81-4.16,0-7.52,2.09-7.52,4.68a3.35,3.35,0,0,0,.62,1.87h0a41.89,41.89,0,0,1,5.26,11.26c1.46,5.23,2,12.34-4,16.54-7.87,5.55-10.38,14-7.25,24.41a49.67,49.67,0,0,0,6.5,13.27v0a.45.45,0,0,0,.07.09h0c1.18,1.63,3.8,2.76,6.85,2.76,4.15,0,7.52-2.09,7.52-4.69a3.26,3.26,0,0,0-.68-1.92h0c-3.86-5.34-11.69-20.75-1.78-27.74C262.71,109.35,265.32,100.93,262.41,90.53Z" transform="translate(-25.38)"/><circle class="cls-2" cx="220.84" cy="224.56" r="188.53"/><polygon class="cls-1" points="106.58 337.12 221.78 361.48 230.49 216.4 247.54 191.76 206.35 69.8 160.45 105.53 142.5 154.81 106.58 191.76 106.58 337.12"/><polygon class="cls-3" points="333.91 174.35 301.41 137.01 285.16 87.22 252.66 87.22 206.35 69.8 206.35 174.35 221.78 199.25 221.78 361.48 333.91 330.65 333.91 174.35"/></svg>