<svg id="Capa_1" data-name="Capa 1" xmlns="http://www.w3.org/2000/svg" viewBox="0 0 441.7 492.45"><defs><style>.cls-1,.cls-3{fill:#fff;}.cls-2{fill:#006ca2;}.cls-3{fill-rule:evenodd;}</style></defs><title>stormnv3</title><polygon class="cls-1" points="220.85 492.45 148.99 431.29 292.71 431.29 220.85 492.45"/><circle class="cls-1" cx="220.85" cy="220.85" r="220.85"/><polygon class="cls-2" points="220.85 461.87 153.1 398.32 288.6 398.32 220.85 461.87"/><path class="cls-1" d="M262.41,90.53a49.44,49.44,0,0,0-6.24-13.32l0,0s0,0,0,0h0c-1.16-1.66-3.8-2.81-6.88-2.81-4.16,0-7.52,2.09-7.52,4.68a3.35,3.35,0,0,0,.62,1.87h0a41.89,41.89,0,0,1,5.26,11.26c1.46,5.23,2,12.34-4,16.54-7.87,5.55-10.38,14-7.25,24.41a49.67,49.67,0,0,0,6.5,13.27v0a.45.45,0,0,0,.07.09h0c1.18,1.63,3.8,2.76,6.85,2.76,4.15,0,7.52-2.09,7.52-4.69a3.26,3.26,0,0,0-.68-1.92h0c-3.86-5.34-11.69-20.75-1.78-27.74C262.71,109.35,265.32,100.93,262.41,90.53Z" transform="translate(-25.38)"/><circle class="cls-2" cx="220.84" cy="224.56" r="188.53"/><path class="cls-3" d="M351,232.39c-6.81-44-35.78-72.23-66.08-84.33-15.66-6.27-33.8-10-54.23-7.22-46.94,6.33-73.61,39.38-81.93,72.66-4.33,17.32-4.26,39,5.54,59.59,17.07,36,55.06,54.86,93.31,45.9,22.53-5.29,36.88-18.12,46.16-34.62,10.45-18.58,14.43-52.06-6.06-75.18-17.07-19.32-57-30.06-80.68-3.47-8.63,9.66-15.78,28-8,45.8,6.68,15.3,24.33,24.5,39.76,18.77,11.29-4.16,16.68-13.24,13.15-26.34-1.41-.2-1.4,4.17-2.7,6.4a16.28,16.28,0,0,1-6.58,6.08c-16.22,7.92-28.47-5.76-28.07-21.24.27-12.48,10.72-23.75,26-25.37,15.71-1.72,30.72,7.43,37.38,21.24,12.43,26-2.38,56.79-29.67,66.45C218.55,308,189.55,292.84,176,269.86c-12.69-21.52-10.39-43.36-3.75-60.76,9.32-24.39,34.07-47.42,70.86-48.1,35.1-.68,73.6,20.18,85.13,66.15,3.91,15.52,3.62,26.92,1.38,39.8-4,23-14.51,43.93-35.92,61-21.14,16.8-54,25.1-79.7,21.24-24-3.58-46.28-14.2-63.19-31.33a117.22,117.22,0,0,1-33.26-76.61,128.55,128.55,0,0,1,17.58-69.82c11.4-19.23,33.6-39.85,58.65-50.41l14.58-5.07c58.48-12.64,107.24,4,140,43.76,18,21.92,31,52.36,32.81,81.67.18,3.09-20.58,11-30.16-9" transform="translate(-25.38)"/></svg>