<?xml version="1.0" encoding="utf-8"?>
<!-- Generator: Adobe Illustrator 24.0.1, SVG Export Plug-In . SVG Version: 6.00 Build 0)  -->
<svg version="1.1" id="Capa_1" xmlns="http://www.w3.org/2000/svg" xmlns:xlink="http://www.w3.org/1999/xlink" x="0px" y="0px"
	 viewBox="0 0 441.7 492.5" style="enable-background:new 0 0 441.7 492.5;" xml:space="preserve">
<style type="text/css">
	.st0{fill:#FFFFFF;}
	.st1{fill:#890A07;}
	.st2{fill:#FF9C39;}
	.st3{fill:#FF1909;}
</style>
<title>volcanonv3</title>
<polygon class="st0" points="220.9,492.5 149,431.3 292.7,431.3 "/>
<circle class="st0" cx="220.9" cy="220.9" r="220.9"/>
<polygon class="st1" points="220.9,461.9 153.1,398.3 288.6,398.3 "/>
<circle class="st1" cx="220.9" cy="224.6" r="188.5"/>
<path class="st2" d="M220.9,366.4c-49.3,0-96-25.1-127.2-68.4l73.4-142.9c4.6-8.9,15.7-16.2,24.9-16.2h58c9.1,0,20.3,7.3,24.8,16.2
	L348,298C316.8,341.3,270.2,366.4,220.9,366.4z"/>
<path class="st3" d="M237.4,213.8v62.9c0.2,10.4,7.8,18.6,17,18.3c8.8-0.2,15.9-8.3,16.2-18.3V149.2c-5.5-6-13.7-10.2-20.6-10.2h-58
	c-7,0-15.3,4.3-20.8,10.4v89.4c0.2,10.4,7.8,18.6,17,18.3c8.8-0.2,15.9-8.3,16.2-18.3v-25c0.2-10.4,7.8-18.6,17-18.3
	C230.1,195.7,237.2,203.8,237.4,213.8L237.4,213.8z"/>
<path class="st0" d="M243.6,108.8c-0.2-0.3-5.9-6.1-0.5-10.4c11.9-9.7,5.5-21.7,0.5-26.6l0,0l0,0c-1.6-1.5-3.7-2.3-5.8-2.2
	c-4.2,0-7.5,2.8-7.5,6.2c0,1.5,0.6,2.9,1.7,3.9l0,0c1,1.1,1.8,2.4,2.4,3.9c0.9,2.5,0.3,4.4-1.9,6.2c-11.8,9.7-5.5,21.8-0.5,26.9l0,0
	c1.6,1.5,3.7,2.3,5.9,2.3c4.2,0,7.6-2.8,7.6-6.2C245.3,111.2,244.7,109.8,243.6,108.8L243.6,108.8z"/>
<path class="st0" d="M209.8,71.7L209.8,71.7c-1.6-1.5-3.7-2.3-5.8-2.2c-4.2,0-7.6,2.8-7.6,6.2c0,1.5,0.6,2.9,1.7,3.9l0,0
	c1,1.1,1.8,2.4,2.4,3.8c0.9,2.5,0.3,4.4-1.9,6.2c-11.9,9.7-5.5,21.8-0.5,26.9l0,0c1.6,1.5,3.7,2.3,5.9,2.3c4.2,0,7.6-2.8,7.6-6.2
	c0-1.5-0.6-2.9-1.7-3.9l0,0c-0.3-0.3-5.9-6.1-0.5-10.4C221.2,88.6,214.8,76.7,209.8,71.7z"/>
</svg>
