<svg id="Capa_1" data-name="Capa 1" xmlns="http://www.w3.org/2000/svg" viewBox="0 0 441.7 492.45"><defs><style>.cls-1{fill:#fff;}.cls-2{fill:#ff6e36;}.cls-3{fill:#ffb446;}.cls-4{fill:#ffdc64;}</style></defs><title>firenv3</title><polygon class="cls-1" points="220.85 492.45 148.99 431.29 292.71 431.29 220.85 492.45"/><circle class="cls-1" cx="220.85" cy="220.85" r="220.85"/><polygon class="cls-2" points="220.85 461.87 153.1 398.32 288.6 398.32 220.85 461.87"/><circle class="cls-2" cx="220.85" cy="224.56" r="188.53"/><path class="cls-3" d="M147,285.3a99.37,99.37,0,0,0,99.38,99.38h0a99.38,99.38,0,0,0,99.39-99.38c0-55.22-27.61-99.39-9.09-138,0,0-29.56,5.52-46.13,49.7,0,0-55.21-55.22-32.14-132.52,0,0-56.2,22.09-50.32,93.87,5,61.55-5.88,71.77-5.88,71.77,0-49.69-38.85-71.77-38.85-71.77C174.57,219,147,235.61,147,285.3Z" transform="translate(-25.38)"/><path class="cls-4" d="M318.09,308.84c0,41.33-31.92,76.63-73.25,75.83-38.9-.75-67.84-30.35-64.74-69,1.38-17.26,14.49-45.21,35.88-73.51l14.27,8.63c-.46-35,16.1-81.44,16.1-81.44C257.23,218.31,318.09,231,318.09,308.84Z" transform="translate(-25.38)"/><path class="cls-1" d="M218.74,272.92c-5.52,33.13-16.56,45.19-16.56,66.26,0,22.09,19.78,44.17,44.17,44.17h0a44.31,44.31,0,0,0,44.17-44.65c-.18-66-38.65-98.9-38.65-98.9,5.53,33.12-11,49.69-11,49.69C233.93,279.14,218.74,272.92,218.74,272.92Z" transform="translate(-25.38)"/></svg>